<svg xmlns="http://www.w3.org/2000/svg" width="64" height="64" fill="none"><path fill="#116EC9" fill-rule="evenodd" d="M17.423 4.318a2.567 2.567 0 0 1 3.143 1.815l1.329 4.959 9.917-2.658-1.329-4.958a2.567 2.567 0 0 1 4.959-1.329l1.328 4.959 4.959-1.329a7.7 7.7 0 0 1 9.43 5.445l1.33 4.959 4.958-1.329a2.567 2.567 0 1 1 1.328 4.959l-4.958 1.328 1.993 7.438 4.958-1.329a2.567 2.567 0 0 1 1.329 4.959l-4.959 1.328 1.993 7.438a7.7 7.7 0 0 1-5.444 9.43l-4.959 1.33 1.329 4.958a2.567 2.567 0 0 1-4.959 1.329l-1.328-4.96-9.918 2.657 1.33 4.959a2.567 2.567 0 0 1-4.96 1.328l-1.328-4.958-4.959 1.329a7.7 7.7 0 0 1-9.43-5.445l-1.993-7.438-4.959 1.329a2.567 2.567 0 0 1-1.328-4.959l4.958-1.328-1.993-7.438-4.958 1.328a2.567 2.567 0 1 1-1.329-4.958l4.959-1.329-1.33-4.958a7.7 7.7 0 0 1 5.446-9.431l4.958-1.329-1.328-4.958a2.567 2.567 0 0 1 1.815-3.144Zm-4.117 14.39a2.567 2.567 0 0 0-1.814 3.143l7.971 29.751a2.567 2.567 0 0 0 3.144 1.815l29.75-7.972a2.567 2.567 0 0 0 1.816-3.143L46.2 12.55a2.567 2.567 0 0 0-3.144-1.815l-29.75 7.971Zm7.616 8.588a2.567 2.567 0 0 1 1.815-3.144l14.876-3.986a2.567 2.567 0 0 1 3.143 1.815l3.986 14.876A2.567 2.567 0 0 1 42.927 40l-14.875 3.985a2.567 2.567 0 0 1-3.144-1.814l-3.986-14.876Z" clip-rule="evenodd"/></svg>